<?xml version="1.0" encoding="UTF-8" standalone="no"?><!-- Generator: Gravit.io --><svg xmlns="http://www.w3.org/2000/svg" xmlns:xlink="http://www.w3.org/1999/xlink" style="isolation:isolate" viewBox="-43.757 38 601.257 739" width="601.257pt" height="739pt"><defs><clipPath id="_clipPath_ts6Qa3gIaUOccp6cTQQdQoWF6SLxVeGc"><rect x="-43.757" y="38" width="601.257" height="739"/></clipPath></defs><g clip-path="url(#_clipPath_ts6Qa3gIaUOccp6cTQQdQoWF6SLxVeGc)"><rect x="58" y="132" width="76" height="76" transform="matrix(1,0,0,1,0,0)" fill="rgb(23,23,23)"/><path d=" M 113.625 168.062 L 96 141.625 L 78.375 168.062 L 113.625 168.062 Z " fill="rgb(232,232,232)"/><rect x="75.437" y="173.937" width="41.125" height="11.75" transform="matrix(0,-1,1,0,-83.812,275.812)" fill="rgb(232,232,232)"/><rect x="58" y="216" width="76" height="76" transform="matrix(-1,0,0,-1,192,508)" fill="rgb(23,23,23)"/><path d=" M 78.375 256.937 L 96 283.375 L 113.625 256.937 L 78.375 256.937 Z " fill="rgb(232,232,232)"/><rect x="75.437" y="239.312" width="41.125" height="11.75" transform="matrix(0,1,-1,0,341.187,149.187)" fill="rgb(232,232,232)"/><rect x="142" y="216" width="76" height="76" transform="matrix(0,1,-1,0,434,74)" fill="rgb(23,23,23)"/><path d=" M 182.938 271.625 L 209.375 254 L 182.938 236.375 L 182.938 271.625 Z " fill="rgb(232,232,232)"/><rect x="150.625" y="248.125" width="41.125" height="11.75" transform="matrix(1,0,0,1,0,0)" fill="rgb(232,232,232)"/><rect x="-26" y="216" width="76" height="76" transform="matrix(0,-1,1,0,-242,266)" fill="rgb(23,23,23)"/><path d=" M 9.063 236.375 L -17.375 254 L 9.063 271.625 L 9.063 236.375 Z " fill="rgb(232,232,232)"/><rect x="0.25" y="248.125" width="41.125" height="11.75" transform="matrix(-1,0,0,-1,41.625,508)" fill="rgb(232,232,232)"/><rect x="391" y="200.375" width="76" height="76" transform="matrix(1,0,0,1,0,0)" fill="rgb(23,23,23)"/><g clip-path="url(#_clipPath_rXN0h1s25Wk9Gm8sqUQDUCPApGloVMmS)"><text transform="matrix(1,0,0,1,403.347,258.16)" style="font-family:'Open Sans', 'Helvetica Neue', 'Helvetica', 'Arial', sans-serif;font-weight:700;font-size:51px;font-style:normal;fill:#e8e8e8;stroke:none;">W</text></g><defs><clipPath id="_clipPath_rXN0h1s25Wk9Gm8sqUQDUCPApGloVMmS"><rect x="0" y="0" width="76" height="76" transform="matrix(1,0,0,1,391,200.375)"/></clipPath></defs><g><g><g><rect x="62.563" y="481" width="76" height="76" transform="matrix(1,0,0,1,0,0)" fill="rgb(23,23,23)"/><g clip-path="url(#_clipPath_qLJcvMFmjC1IStZymoA7JpLj0Kb9LHSG)"><text transform="matrix(1,0,0,1,85.007,538.785)" style="font-family:'Open Sans', 'Helvetica Neue', 'Helvetica', 'Arial', sans-serif;font-weight:700;font-size:51px;font-style:normal;fill:#e8e8e8;stroke:none;">1</text></g><defs><clipPath id="_clipPath_qLJcvMFmjC1IStZymoA7JpLj0Kb9LHSG"><rect x="0" y="0" width="76" height="76" transform="matrix(1,0,0,1,62.563,481)"/></clipPath></defs><rect x="393.563" y="481" width="76" height="76" transform="matrix(1,0,0,1,0,0)" fill="rgb(23,23,23)"/><g clip-path="url(#_clipPath_GW2TP9hNnqWpSsN13z2fkLi6NudJ5MRb)"><text transform="matrix(1,0,0,1,416.007,538.785)" style="font-family:'Open Sans', 'Helvetica Neue', 'Helvetica', 'Arial', sans-serif;font-weight:700;font-size:51px;font-style:normal;fill:#e8e8e8;stroke:none;">2</text></g><defs><clipPath id="_clipPath_GW2TP9hNnqWpSsN13z2fkLi6NudJ5MRb"><rect x="0" y="0" width="76" height="76" transform="matrix(1,0,0,1,393.563,481)"/></clipPath></defs></g></g></g><rect x="475" y="284.375" width="76" height="76" transform="matrix(1,0,0,1,0,0)" fill="rgb(23,23,23)"/><g clip-path="url(#_clipPath_uXV6sVQm4hSsWNXa9SHnm7URKWCZe0kK)"><text transform="matrix(1,0,0,1,493.124,342.16)" style="font-family:'Open Sans', 'Helvetica Neue', 'Helvetica', 'Arial', sans-serif;font-weight:700;font-size:51px;font-style:normal;fill:#e8e8e8;stroke:none;">D</text></g><defs><clipPath id="_clipPath_uXV6sVQm4hSsWNXa9SHnm7URKWCZe0kK"><rect x="0" y="0" width="76" height="76" transform="matrix(1,0,0,1,475,284.375)"/></clipPath></defs><rect x="391" y="284.375" width="76" height="76" transform="matrix(1,0,0,1,0,0)" fill="rgb(23,23,23)"/><g clip-path="url(#_clipPath_TnLhHszc72qfkM2LHq30dZhpXdpCUYwh)"><text transform="matrix(1,0,0,1,413.955,342.16)" style="font-family:'Open Sans', 'Helvetica Neue', 'Helvetica', 'Arial', sans-serif;font-weight:700;font-size:51px;font-style:normal;fill:#e8e8e8;stroke:none;">S</text></g><defs><clipPath id="_clipPath_TnLhHszc72qfkM2LHq30dZhpXdpCUYwh"><rect x="0" y="0" width="75" height="76" transform="matrix(1,0,0,1,391.5,284.375)"/></clipPath></defs><rect x="307" y="284.375" width="76" height="76" transform="matrix(1,0,0,1,0,0)" fill="rgb(23,23,23)"/><g clip-path="url(#_clipPath_aNwMyB0BKG5U3B482YQTau80Zgo9iwBA)"><text transform="matrix(1,0,0,1,326.406,342.16)" style="font-family:'Open Sans', 'Helvetica Neue', 'Helvetica', 'Arial', sans-serif;font-weight:700;font-size:51px;font-style:normal;fill:#e8e8e8;stroke:none;">A</text></g><defs><clipPath id="_clipPath_aNwMyB0BKG5U3B482YQTau80Zgo9iwBA"><rect x="0" y="0" width="75" height="76" transform="matrix(1,0,0,1,307.5,284.375)"/></clipPath></defs><g clip-path="url(#_clipPath_q3SoXpIUDxgUWvKxns1FzH4Q2Rg1AqrR)"><text transform="matrix(1,0,0,1,179.902,511.883)" style="font-family:'Open Sans', 'Helvetica Neue', 'Helvetica', 'Arial', sans-serif;font-weight:700;font-size:26px;font-style:normal;fill:#000000;stroke:none;">PUT VEHICLE </text><text transform="matrix(1,0,0,1,151.192,547.29)" style="font-family:'Open Sans', 'Helvetica Neue', 'Helvetica', 'Arial', sans-serif;font-weight:700;font-size:26px;font-style:normal;fill:#000000;stroke:none;">BACK ON WHEELS</text></g><defs><clipPath id="_clipPath_q3SoXpIUDxgUWvKxns1FzH4Q2Rg1AqrR"><rect x="0" y="0" width="257" height="75" transform="matrix(1,0,0,1,137.563,482)"/></clipPath></defs><g clip-path="url(#_clipPath_A1nykF1NjyNNOthAH6faChWRFUUYX5R4)"><text transform="matrix(1,0,0,1,-2.765,92.569)" style="font-family:'Open Sans', 'Helvetica Neue', 'Helvetica', 'Arial', sans-serif;font-weight:700;font-size:44px;font-style:normal;fill:#4e2cd7;stroke:none;">Vehicle 1</text></g><defs><clipPath id="_clipPath_A1nykF1NjyNNOthAH6faChWRFUUYX5R4"><rect x="0" y="0" width="257" height="75" transform="matrix(1,0,0,1,-32.5,38)"/></clipPath></defs><g clip-path="url(#_clipPath_gufL2y3lmTKC6VIy0eNhV4KVVJvyrD7w)"><text transform="matrix(1,0,0,1,330.235,92.569)" style="font-family:'Open Sans', 'Helvetica Neue', 'Helvetica', 'Arial', sans-serif;font-weight:700;font-size:44px;font-style:normal;fill:#528800;stroke:none;">Vehicle 2</text></g><defs><clipPath id="_clipPath_gufL2y3lmTKC6VIy0eNhV4KVVJvyrD7w"><rect x="0" y="0" width="257" height="75" transform="matrix(1,0,0,1,300.5,38)"/></clipPath></defs><g><g><g><rect x="62.563" y="590" width="76" height="76" transform="matrix(1,0,0,1,0,0)" fill="rgb(23,23,23)"/><rect x="393.563" y="590" width="76" height="76" transform="matrix(1,0,0,1,0,0)" fill="rgb(23,23,23)"/><g clip-path="url(#_clipPath_JPL6lyLv9sIszeEZQO8WXquDLG0zbhLb)"><text transform="matrix(1,0,0,1,413.554,647.785)" style="font-family:'Open Sans', 'Helvetica Neue', 'Helvetica', 'Arial', sans-serif;font-weight:700;font-size:51px;font-style:normal;fill:#e8e8e8;stroke:none;">X</text></g><defs><clipPath id="_clipPath_JPL6lyLv9sIszeEZQO8WXquDLG0zbhLb"><rect x="0" y="0" width="76" height="76" transform="matrix(1,0,0,1,393.563,590)"/></clipPath></defs></g></g></g><g clip-path="url(#_clipPath_CwNZWkmsapvnKaLQjj0e3WgOdB0yrtna)"><text transform="matrix(1,0,0,1,230.512,638.586)" style="font-family:'Open Sans', 'Helvetica Neue', 'Helvetica', 'Arial', sans-serif;font-weight:700;font-size:26px;font-style:normal;fill:#000000;stroke:none;">JUMP</text></g><defs><clipPath id="_clipPath_CwNZWkmsapvnKaLQjj0e3WgOdB0yrtna"><rect x="0" y="0" width="257" height="75" transform="matrix(1,0,0,1,137.563,591)"/></clipPath></defs><g><g><g><rect x="63.875" y="701" width="76" height="76" transform="matrix(1,0,0,1,0,0)" fill="rgb(23,23,23)"/><g clip-path="url(#_clipPath_oQsH3uihcsq0sAmoYxvUOE9F4L6QgdrX)"><text transform="matrix(1,0,0,1,84.041,758.785)" style="font-family:'Open Sans', 'Helvetica Neue', 'Helvetica', 'Arial', sans-serif;font-weight:700;font-size:51px;font-style:normal;fill:#e8e8e8;stroke:none;">R</text></g><defs><clipPath id="_clipPath_oQsH3uihcsq0sAmoYxvUOE9F4L6QgdrX"><rect x="0" y="0" width="76" height="76" transform="matrix(1,0,0,1,63.875,701)"/></clipPath></defs></g></g></g><g clip-path="url(#_clipPath_uAo2K96m43WMjmE3Z4joRLJy1vIS2hxt)"><text transform="matrix(1,0,0,1,198.995,749.586)" style="font-family:'Open Sans', 'Helvetica Neue', 'Helvetica', 'Arial', sans-serif;font-weight:700;font-size:26px;font-style:normal;fill:#000000;stroke:none;">RESET GAME</text></g><defs><clipPath id="_clipPath_uAo2K96m43WMjmE3Z4joRLJy1vIS2hxt"><rect x="0" y="0" width="257" height="75" transform="matrix(1,0,0,1,150.625,702)"/></clipPath></defs><g><g><path d=" M 55.14 330.492 C 65.924 326.128 80.455 323.451 96.43 323.451 L 96.43 323.451 C 112.406 323.451 126.936 326.128 137.72 330.492 L 137.72 365.924 L 55.14 365.924 L 55.14 330.492 Z " fill-rule="evenodd" fill="rgb(23,23,23)"/></g><g clip-path="url(#_clipPath_hepYRdrcAsQP8ODKj2crUh4O2L0ff4n6)"><text transform="matrix(0.86,0,0,0.86,77.569,356.034)" style="font-family:'Open Sans', 'Helvetica Neue', 'Helvetica', 'Arial', sans-serif;font-weight:700;font-size:34px;font-style:normal;fill:#e8e8e8;stroke:none;">R1</text></g><defs><clipPath id="_clipPath_hepYRdrcAsQP8ODKj2crUh4O2L0ff4n6"><rect x="0" y="0" width="75" height="76" transform="matrix(0.86,0,0,0.86,64.173,312)"/></clipPath></defs></g><g><g><path d=" M 55.14 384.416 C 65.924 380.052 80.455 377.375 96.43 377.375 L 96.43 377.375 C 112.406 377.375 126.936 380.052 137.72 384.416 L 137.72 419.848 L 55.14 419.848 L 55.14 384.416 Z " fill-rule="evenodd" fill="rgb(23,23,23)"/></g><g clip-path="url(#_clipPath_O3V6vC8LU2PZ6Dj3BQQAe5qdbIEbq1Rn)"><text transform="matrix(0.86,0,0,0.86,78.961,409.958)" style="font-family:'Open Sans', 'Helvetica Neue', 'Helvetica', 'Arial', sans-serif;font-weight:700;font-size:34px;font-style:normal;fill:#e8e8e8;stroke:none;">L1</text></g><defs><clipPath id="_clipPath_O3V6vC8LU2PZ6Dj3BQQAe5qdbIEbq1Rn"><rect x="0" y="0" width="75" height="76" transform="matrix(0.86,0,0,0.86,64.173,365.924)"/></clipPath></defs></g><path d=" M 23.313 418.826 L 26.693 414.416 L 28.862 411.587 L 34.411 404.347 L 35.84 402.483 L 44.986 390.549 C 46.852 388.115 46.852 384.162 44.986 381.728 L 35.84 369.795 L 26.693 357.861 C 26.693 357.861 26.693 357.861 26.693 357.861 L 23.313 353.451 L -42.062 353.451 L -42.063 418.826 L 23.313 418.826 L 23.313 418.826 Z " fill-rule="evenodd" fill="rgb(23,23,23)"/><path d=" M 168.687 353.451 L 165.307 357.861 L 163.138 360.691 L 157.589 367.931 L 156.16 369.795 L 147.014 381.728 C 145.148 384.162 145.148 388.115 147.014 390.549 L 156.16 402.483 L 165.307 414.416 C 165.307 414.416 165.307 414.416 165.307 414.416 L 168.687 418.826 L 234.062 418.826 L 234.062 353.451 L 168.687 353.451 L 168.687 353.451 Z " fill-rule="evenodd" fill="rgb(23,23,23)"/><polygon points="2.161,370.801,2.161,401.477,-13.676,386.139" fill="rgb(232,232,232)"/><polygon points="189.839,401.477,189.839,370.801,205.676,386.139" fill="rgb(232,232,232)"/><circle vector-effect="non-scaling-stroke" cx="-5.757242978351158" cy="519.4999999999998" r="38.00000000000002" fill="rgb(23,23,23)"/><path d=" M -39.257 519.5 C -39.257 501.011 -24.246 486 -5.757 486 C 12.732 486 27.743 501.011 27.743 519.5 C 27.743 537.989 12.732 553 -5.757 553 C -24.246 553 -39.257 537.989 -39.257 519.5 Z  M -32.257 519.5 C -32.257 504.874 -20.383 493 -5.757 493 C 8.869 493 20.743 504.874 20.743 519.5 C 20.743 534.126 8.869 546 -5.757 546 C -20.383 546 -32.257 534.126 -32.257 519.5 Z " fill-rule="evenodd" fill="rgb(255,98,98)"/><g><g><circle vector-effect="non-scaling-stroke" cx="-4.062500000000028" cy="739" r="38.00000000000002" fill="rgb(23,23,23)"/><defs><filter id="wBPKAgCe0AW2bbBxTHh5XtPDgOjhoB6V" x="-200%" y="-200%" width="400%" height="400%" filterUnits="objectBoundingBox" color-interpolation-filters="sRGB"><feGaussianBlur xmlns="http://www.w3.org/2000/svg" in="SourceGraphic" stdDeviation="2.146804531419514"/><feOffset xmlns="http://www.w3.org/2000/svg" dx="0" dy="0" result="pf_100_offsetBlur"/><feFlood xmlns="http://www.w3.org/2000/svg" flood-color="#000000" flood-opacity="0.65"/><feComposite xmlns="http://www.w3.org/2000/svg" in2="pf_100_offsetBlur" operator="in" result="pf_100_dropShadow"/><feBlend xmlns="http://www.w3.org/2000/svg" in="SourceGraphic" in2="pf_100_dropShadow" mode="normal"/></filter></defs><g filter="url(#wBPKAgCe0AW2bbBxTHh5XtPDgOjhoB6V)"><path d=" M 24.228 757 L -4.063 757 L -32.353 757 L -18.208 732.5 L -4.063 708 L 10.083 732.5 L 24.228 757 Z  M 15.629 752.107 L -4.063 752.107 L -23.754 752.107 L -13.908 735.054 L -4.063 718 L 5.783 735.054 L 15.629 752.107 Z " fill-rule="evenodd" fill="rgb(142,255,159)"/></g></g></g><g><g><circle vector-effect="non-scaling-stroke" cx="-4.0625000000000355" cy="628.5000000000002" r="38.00000000000002" fill="rgb(23,23,23)"/></g></g><g clip-path="url(#_clipPath_wsY2qMLFEyCZwlnU7IjL5ZsbQWzzRv2L)"><text transform="matrix(1,0,0,1,89.029,647.785)" style="font-family:'Open Sans', 'Helvetica Neue', 'Helvetica', 'Arial', sans-serif;font-weight:700;font-size:51px;font-style:normal;fill:#e8e8e8;stroke:none;">/</text></g><defs><clipPath id="_clipPath_wsY2qMLFEyCZwlnU7IjL5ZsbQWzzRv2L"><rect x="0" y="0" width="76" height="76" transform="matrix(1,0,0,1,62.563,590)"/></clipPath></defs><g><rect x="-38.063" y="624.5" width="68" height="8" transform="matrix(0.707,0.707,-0.707,0.707,443.227,186.956)" fill="rgb(152,193,255)"/><rect x="-38.063" y="624.5" width="68" height="8" transform="matrix(-0.707,0.707,-0.707,-0.707,437.481,1075.789)" fill="rgb(152,193,255)"/></g></g></svg>
