<?xml version="1.0" encoding="UTF-8" standalone="no"?><!-- Generator: Gravit.io --><svg xmlns="http://www.w3.org/2000/svg" xmlns:xlink="http://www.w3.org/1999/xlink" style="isolation:isolate" viewBox="-32.5 38 590 520" width="590pt" height="520pt"><defs><clipPath id="_clipPath_e7hABc38gns4qGJBneBi40v8wmKkOIrK"><rect x="-32.5" y="38" width="590" height="520"/></clipPath></defs><g clip-path="url(#_clipPath_e7hABc38gns4qGJBneBi40v8wmKkOIrK)"><rect x="58" y="132" width="76" height="76" transform="matrix(1,0,0,1,0,0)" fill="rgb(23,23,23)"/><path d=" M 113.625 168.062 L 96 141.625 L 78.375 168.062 L 113.625 168.062 Z " fill="rgb(232,232,232)"/><rect x="75.437" y="173.937" width="41.125" height="11.75" transform="matrix(0,-1,1,0,-83.812,275.812)" fill="rgb(232,232,232)"/><rect x="58" y="216" width="76" height="76" transform="matrix(-1,0,0,-1,192,508)" fill="rgb(23,23,23)"/><path d=" M 78.375 256.937 L 96 283.375 L 113.625 256.937 L 78.375 256.937 Z " fill="rgb(232,232,232)"/><rect x="75.437" y="239.312" width="41.125" height="11.75" transform="matrix(0,1,-1,0,341.187,149.187)" fill="rgb(232,232,232)"/><rect x="142" y="216" width="76" height="76" transform="matrix(0,1,-1,0,434,74)" fill="rgb(23,23,23)"/><path d=" M 182.938 271.625 L 209.375 254 L 182.938 236.375 L 182.938 271.625 Z " fill="rgb(232,232,232)"/><rect x="150.625" y="248.125" width="41.125" height="11.75" transform="matrix(1,0,0,1,0,0)" fill="rgb(232,232,232)"/><rect x="-26" y="216" width="76" height="76" transform="matrix(0,-1,1,0,-242,266)" fill="rgb(23,23,23)"/><path d=" M 9.063 236.375 L -17.375 254 L 9.063 271.625 L 9.063 236.375 Z " fill="rgb(232,232,232)"/><rect x="0.25" y="248.125" width="41.125" height="11.75" transform="matrix(-1,0,0,-1,41.625,508)" fill="rgb(232,232,232)"/><rect x="391" y="132" width="76" height="76" transform="matrix(1,0,0,1,0,0)" fill="rgb(23,23,23)"/><g clip-path="url(#_clipPath_gGgDGHD8tJl2tM5akr3BPIDXxOpZZpdu)"><text transform="matrix(1,0,0,1,403.347,189.785)" style="font-family:'Open Sans';font-weight:700;font-size:51px;font-style:normal;fill:#e8e8e8;stroke:none;">W</text></g><defs><clipPath id="_clipPath_gGgDGHD8tJl2tM5akr3BPIDXxOpZZpdu"><rect x="0" y="0" width="76" height="76" transform="matrix(1,0,0,1,391,132)"/></clipPath></defs><g><g><g><rect x="59" y="373" width="76" height="76" transform="matrix(1,0,0,1,0,0)" fill="rgb(23,23,23)"/><g clip-path="url(#_clipPath_WwCXt5I22vGkaRAdWJKb7XLbsUc6sesR)"><text transform="matrix(1,0,0,1,81.445,430.785)" style="font-family:'Open Sans';font-weight:700;font-size:51px;font-style:normal;fill:#e8e8e8;stroke:none;">1</text></g><defs><clipPath id="_clipPath_WwCXt5I22vGkaRAdWJKb7XLbsUc6sesR"><rect x="0" y="0" width="76" height="76" transform="matrix(1,0,0,1,59,373)"/></clipPath></defs><rect x="390" y="373" width="76" height="76" transform="matrix(1,0,0,1,0,0)" fill="rgb(23,23,23)"/><g clip-path="url(#_clipPath_Qxfh1VBEoxq0nvaHDP2lRKXVgaIOMwwL)"><text transform="matrix(1,0,0,1,412.445,430.785)" style="font-family:'Open Sans';font-weight:700;font-size:51px;font-style:normal;fill:#e8e8e8;stroke:none;">2</text></g><defs><clipPath id="_clipPath_Qxfh1VBEoxq0nvaHDP2lRKXVgaIOMwwL"><rect x="0" y="0" width="76" height="76" transform="matrix(1,0,0,1,390,373)"/></clipPath></defs></g></g></g><rect x="475" y="216" width="76" height="76" transform="matrix(1,0,0,1,0,0)" fill="rgb(23,23,23)"/><g clip-path="url(#_clipPath_LWITfi4eFJ9zzZnTgwVaxrZmSb38qZTY)"><text transform="matrix(1,0,0,1,493.124,273.785)" style="font-family:'Open Sans';font-weight:700;font-size:51px;font-style:normal;fill:#e8e8e8;stroke:none;">D</text></g><defs><clipPath id="_clipPath_LWITfi4eFJ9zzZnTgwVaxrZmSb38qZTY"><rect x="0" y="0" width="76" height="76" transform="matrix(1,0,0,1,475,216)"/></clipPath></defs><rect x="391" y="216" width="76" height="76" transform="matrix(1,0,0,1,0,0)" fill="rgb(23,23,23)"/><g clip-path="url(#_clipPath_Vxf3j94MMQ74meYrSkdLVCrrn54oOq6F)"><text transform="matrix(1,0,0,1,413.955,273.785)" style="font-family:'Open Sans';font-weight:700;font-size:51px;font-style:normal;fill:#e8e8e8;stroke:none;">S</text></g><defs><clipPath id="_clipPath_Vxf3j94MMQ74meYrSkdLVCrrn54oOq6F"><rect x="0" y="0" width="75" height="76" transform="matrix(1,0,0,1,391.5,216)"/></clipPath></defs><rect x="307" y="216" width="76" height="76" transform="matrix(1,0,0,1,0,0)" fill="rgb(23,23,23)"/><g clip-path="url(#_clipPath_radB0JXkvNUpOoGMkfamOIlQq5qhfdvm)"><text transform="matrix(1,0,0,1,326.406,273.785)" style="font-family:'Open Sans';font-weight:700;font-size:51px;font-style:normal;fill:#e8e8e8;stroke:none;">A</text></g><defs><clipPath id="_clipPath_radB0JXkvNUpOoGMkfamOIlQq5qhfdvm"><rect x="0" y="0" width="75" height="76" transform="matrix(1,0,0,1,307.5,216)"/></clipPath></defs><g clip-path="url(#_clipPath_hAGzu80Op3DlwZ1OaWUjL62Xxu3YExzA)"><text transform="matrix(1,0,0,1,176.156,421.586)" style="font-family:'Open Sans';font-weight:700;font-size:26px;font-style:normal;fill:#000000;stroke:none;">Reset vehicle</text></g><defs><clipPath id="_clipPath_hAGzu80Op3DlwZ1OaWUjL62Xxu3YExzA"><rect x="0" y="0" width="257" height="75" transform="matrix(1,0,0,1,134,374)"/></clipPath></defs><g clip-path="url(#_clipPath_sz1LjEoUHITI6RaNn0P0ryHntI7QKxI4)"><text transform="matrix(1,0,0,1,-2.765,92.569)" style="font-family:'Open Sans';font-weight:700;font-size:44px;font-style:normal;fill:#4e2cd7;stroke:none;">Vehicle 1</text></g><defs><clipPath id="_clipPath_sz1LjEoUHITI6RaNn0P0ryHntI7QKxI4"><rect x="0" y="0" width="257" height="75" transform="matrix(1,0,0,1,-32.5,38)"/></clipPath></defs><g clip-path="url(#_clipPath_RVh91jHKuvglYQbCCd3q89JqZhRmneYE)"><text transform="matrix(1,0,0,1,330.235,92.569)" style="font-family:'Open Sans';font-weight:700;font-size:44px;font-style:normal;fill:#528800;stroke:none;">Vehicle 2</text></g><defs><clipPath id="_clipPath_RVh91jHKuvglYQbCCd3q89JqZhRmneYE"><rect x="0" y="0" width="257" height="75" transform="matrix(1,0,0,1,300.5,38)"/></clipPath></defs><g><g><g><rect x="59" y="482" width="76" height="76" transform="matrix(1,0,0,1,0,0)" fill="rgb(23,23,23)"/><g clip-path="url(#_clipPath_G4ELZu7INjRSFgmWUlFrUAzUXTS3qGKJ)"><text transform="matrix(1,0,0,1,85.466,539.785)" style="font-family:'Open Sans';font-weight:700;font-size:51px;font-style:normal;fill:#e8e8e8;stroke:none;">/</text></g><defs><clipPath id="_clipPath_G4ELZu7INjRSFgmWUlFrUAzUXTS3qGKJ"><rect x="0" y="0" width="76" height="76" transform="matrix(1,0,0,1,59,482)"/></clipPath></defs><rect x="390" y="482" width="76" height="76" transform="matrix(1,0,0,1,0,0)" fill="rgb(23,23,23)"/><g clip-path="url(#_clipPath_1yfGXJrTogkPlEJbY0SpLyCQh8nlkmqX)"><text transform="matrix(1,0,0,1,409.992,539.785)" style="font-family:'Open Sans';font-weight:700;font-size:51px;font-style:normal;fill:#e8e8e8;stroke:none;">X</text></g><defs><clipPath id="_clipPath_1yfGXJrTogkPlEJbY0SpLyCQh8nlkmqX"><rect x="0" y="0" width="76" height="76" transform="matrix(1,0,0,1,390,482)"/></clipPath></defs></g></g></g><g clip-path="url(#_clipPath_kgdYUudeo9f2hC0VZquGRqKxTef7h1g3)"><text transform="matrix(1,0,0,1,227.661,530.586)" style="font-family:'Open Sans';font-weight:700;font-size:26px;font-style:normal;fill:#000000;stroke:none;">Jump</text></g><defs><clipPath id="_clipPath_kgdYUudeo9f2hC0VZquGRqKxTef7h1g3"><rect x="0" y="0" width="257" height="75" transform="matrix(1,0,0,1,134,483)"/></clipPath></defs></g></svg>